<?xml version="1.0"?><svg width="640" height="480" xmlns="http://www.w3.org/2000/svg">
 <title>Radio Waves</title>
 <g>
  <path d="m449.388092,71.478867c57.637726,42.267654 89.259247,108.04892 84.626129,176.045319c-4.633118,67.996384 -44.931976,129.565598 -107.848633,164.772964" id="path4181" stroke-miterlimit="4" stroke-linecap="round" stroke-width="15.418222" stroke="#0000d5" fill-rule="nonzero" fill="none"/>
  <path d="m495.211426,42.46204c63.435547,52.424526 97.334961,128.987286 91.923889,207.612423c-5.411011,78.625122 -49.531189,150.572784 -119.638855,195.09787" id="path4190" stroke-miterlimit="4" stroke-linecap="round" stroke-width="12.5" stroke="#0000d5" fill-rule="nonzero" fill="none"/>
  <path d="m420.721161,106.314743c45.31543,33.231308 70.176575,84.949295 66.534058,138.408783c-3.642639,53.459549 -35.326019,101.865952 -84.79184,129.546371" id="path4196" marker-end="none" marker-mid="none" marker-start="none" stroke-dashoffset="0" stroke-miterlimit="4" stroke-linecap="round" stroke-width="12.5" stroke="#0000d5" fill-rule="nonzero" fill="none"/>
  <path d="m392.069214,143.347977c32.562012,23.878784 50.42627,61.041412 47.808838,99.455444c-2.617462,38.414047 -25.383942,73.197067 -60.928223,93.087173" id="path4197" marker-end="none" marker-mid="none" marker-start="none" stroke-dashoffset="0" stroke-miterlimit="4" stroke-linecap="round" stroke-width="12.5" stroke="#0000d5" fill-rule="nonzero" fill="none"/>
  <path d="m366.396759,169.986588c22.793396,16.715134 35.298401,42.728989 33.466187,69.61879c-1.832184,26.889771 -17.768738,51.237976 -42.64975,65.161041" id="path4198" marker-end="none" marker-mid="none" marker-start="none" stroke-dashoffset="0" stroke-miterlimit="4" stroke-linecap="round" stroke-width="12.5" stroke="#0000d5" fill-rule="nonzero" fill="none"/>
  <path d="m177.704407,71.868401c-57.637718,42.267639 -89.259239,108.048927 -84.626099,176.045326c4.63311,67.996368 44.931946,129.565613 107.848633,164.77301" id="path4208" stroke-miterlimit="4" stroke-linecap="round" stroke-width="15.418222" stroke="#0000d5" fill-rule="nonzero" fill="none"/>
  <path d="m131.881042,42.851711c-63.435524,52.424496 -97.334972,128.987232 -91.923923,207.6124c5.41106,78.625153 49.53117,150.572784 119.638905,195.097839" id="path4209" stroke-miterlimit="4" stroke-linecap="round" stroke-width="12.5" stroke="#0000d5" fill-rule="nonzero" fill="none"/>
  <path d="m206.373123,106.704323c-45.315399,33.231316 -70.176559,84.949303 -66.533981,138.40876c3.642609,53.459518 35.325989,101.866013 84.791794,129.546402" id="path4210" marker-end="none" marker-mid="none" marker-start="none" stroke-dashoffset="0" stroke-miterlimit="4" stroke-linecap="round" stroke-width="12.5" stroke="#0000d5" fill-rule="nonzero" fill="none"/>
  <path d="m235.025116,143.737564c-32.562012,23.878784 -50.426315,61.041428 -47.808838,99.455444c2.617416,38.414017 25.383926,73.197067 60.928238,93.087173" id="path4211" marker-end="none" marker-mid="none" marker-start="none" stroke-dashoffset="0" stroke-miterlimit="4" stroke-linecap="round" stroke-width="12.5" stroke="#0000d5" fill-rule="nonzero" fill="none"/>
  <path d="m260.697571,170.37616c-22.793411,16.715149 -35.298431,42.729004 -33.466202,69.61882c1.832199,26.889755 17.768738,51.237961 42.649765,65.161026" id="path4212" marker-end="none" marker-mid="none" marker-start="none" stroke-dashoffset="0" stroke-miterlimit="4" stroke-linecap="round" stroke-width="12.5" stroke="#0000d5" fill-rule="nonzero" fill="none"/>
  <title>Layer 1</title>
  <text transform="matrix(6.90789 0 0 3.48886 -1748.96 -551.881)" xml:space="preserve" text-anchor="middle" font-family="Arial" font-size="7" id="svg_1" y="228.146508" x="299.144762" stroke-linecap="round" stroke-linejoin="null" stroke-dasharray="null" stroke-width="0" stroke="#000000" fill="#000000">beep!</text>
 </g>
</svg>